<?xml version="1.0" encoding="UTF-8"?>
<svg xmlns="http://www.w3.org/2000/svg" xmlns:xlink="http://www.w3.org/1999/xlink" viewBox="0 0 24 24" width="24px" height="24px">
<g id="surface155967540">
<path style=" stroke:none;fill-rule:nonzero;fill:rgb(100%,100%,100%);fill-opacity:1;" d="M 7.5 1 C 7.371094 1 7.242188 1.050781 7.144531 1.144531 C 6.953125 1.339844 6.953125 1.660156 7.144531 1.851562 L 8.457031 3.164062 C 6.96875 4.257812 6 6.011719 6 8 L 18 8 C 18 6.011719 17.03125 4.257812 15.542969 3.164062 L 16.855469 1.851562 C 17.046875 1.65625 17.046875 1.34375 16.855469 1.144531 C 16.660156 0.953125 16.339844 0.953125 16.148438 1.144531 L 14.664062 2.628906 C 13.859375 2.230469 12.957031 2 12 2 C 11.042969 2 10.140625 2.230469 9.335938 2.628906 L 7.855469 1.144531 C 7.757812 1.050781 7.628906 1 7.5 1 Z M 9 5 L 10 5 L 10 6 L 9 6 Z M 14 5 L 15 5 L 15 6 L 14 6 Z M 3 9 L 3 17 L 5 17 L 5 9 Z M 6 9 L 6 17 C 6 17.550781 6.449219 18 7 18 L 8 18 L 8 23 L 11 23 L 11 18 L 13 18 L 13 23 L 16 23 L 16 18 L 17 18 C 17.550781 18 18 17.550781 18 17 L 18 9 Z M 19 9 L 19 17 L 21 17 L 21 9 Z M 19 9 "/>
</g>
</svg>
