<svg xmlns="http://www.w3.org/2000/svg" width="48" height="48" fill="none"><path fill="#E8442E" d="M0 24C0 10.745 10.745 0 24 0s24 10.745 24 24-10.745 24-24 24S0 37.255 0 24Z"/><path fill="#fff" fill-rule="evenodd" d="M12.225 16.731c.623-2.391 2.6-4.21 5.058-4.65.322-.056 1.052-.07 3.484-.076 2.994-.005 3.081 0 3.132.092.036.072.051 3.975.051 12.262 0 11.178-.005 12.164-.082 12.241-.076.077-.373.082-3.234.061-2.764-.015-3.193-.03-3.53-.107-2.585-.603-4.404-2.427-4.971-4.986-.102-.475-.107-.619-.123-6.77-.025-6.698-.01-7.204.215-8.067Zm9.682 17.963V13.992l-1.978.006c-2.186.005-2.498.035-3.172.306a4.388 4.388 0 0 0-2.647 3.163c-.107.506-.107 13.217.005 13.733.342 1.65 1.563 2.917 3.209 3.341.383.097.587.108 2.503.128l2.08.026Z" clip-rule="evenodd"/><path fill="#fff" d="M17.722 17.114c-.322.061-.812.307-1.073.537-.536.465-.802 1.124-.761 1.9.02.404.046.511.21.838.24.496.602.858 1.098 1.104.342.168.43.189.874.204.403.015.546 0 .817-.092 1.109-.373 1.778-1.451 1.589-2.555-.22-1.313-1.466-2.191-2.754-1.936Z"/><path fill="#fff" fill-rule="evenodd" d="M26.402 24.343c0-6.754.016-12.292.036-12.307.016-.02 1.037-.036 2.264-.036 1.777 0 2.33.015 2.687.077 2.667.46 4.695 2.467 5.201 5.13.071.372.082 1.246.082 7.106 0 6.26.007 6.997-.19 7.673-.034.117-.075.232-.122.374-.087.25-.255.654-.383.894-.996 1.875-2.825 3.137-4.9 3.372-.49.05-4.455.071-4.593.02-.076-.03-.082-1.16-.082-12.303Zm7.21.414a2.5 2.5 0 0 0-1.717-1.594c-1.277-.332-2.606.404-2.99 1.656-.127.398-.132 1.052-.02 1.44.373 1.267 1.732 2.039 3.01 1.707.787-.21 1.4-.777 1.711-1.584.169-.44.174-1.144.005-1.625Z" clip-rule="evenodd"/></svg>