<?xml version="1.0" encoding="UTF-8"?>
<svg xmlns="http://www.w3.org/2000/svg" xmlns:xlink="http://www.w3.org/1999/xlink" viewBox="0 0 50 50" width="50px" height="50px">
<g id="surface155941215">
<path style=" stroke:none;fill-rule:nonzero;fill:rgb(100%,100%,100%);fill-opacity:1;" d="M 19.851562 7.761719 L 4.851562 10.011719 C 4.363281 10.085938 4 10.503906 4 11 L 4 23 C 4 23.554688 4.449219 24 5 24 L 20 24 C 20.550781 24 21 23.554688 21 23 L 21 8.75 C 21 8.460938 20.871094 8.183594 20.652344 7.992188 C 20.433594 7.804688 20.140625 7.722656 19.851562 7.761719 Z M 45.652344 4.242188 C 45.433594 4.054688 45.140625 3.972656 44.851562 4.011719 L 23.851562 7.160156 C 23.363281 7.234375 23 7.65625 23 8.148438 L 23 23 C 23 23.554688 23.449219 24 24 24 L 45 24 C 45.550781 24 46 23.554688 46 23 L 46 5 C 46 4.710938 45.871094 4.433594 45.652344 4.242188 Z M 20 26 L 5 26 C 4.449219 26 4 26.445312 4 27 L 4 39 C 4 39.496094 4.363281 39.914062 4.851562 39.988281 L 19.851562 42.238281 C 19.902344 42.246094 19.949219 42.25 20 42.25 C 20.238281 42.25 20.46875 42.164062 20.652344 42.007812 C 20.871094 41.816406 21 41.539062 21 41.25 L 21 27 C 21 26.445312 20.550781 26 20 26 Z M 45 26 L 24 26 C 23.449219 26 23 26.445312 23 27 L 23 41.851562 C 23 42.34375 23.363281 42.765625 23.851562 42.839844 L 44.851562 45.988281 C 44.902344 45.996094 44.949219 46 45 46 C 45.238281 46 45.46875 45.914062 45.652344 45.757812 C 45.871094 45.566406 46 45.289062 46 45 L 46 27 C 46 26.445312 45.550781 26 45 26 Z M 45 26 "/>
</g>
</svg>
